<svg width="193" height="48" viewBox="0 0 193 48" fill="none" xmlns="http://www.w3.org/2000/svg">
<path d="M34.5014 37.6316L14.9354 37.7111L4.64062 47.9794C4.76792 47.99 4.89521 47.998 5.02781 47.998H34.504V37.6289L34.5014 37.6316Z" fill="#E30022"/>
<path d="M42.9719 0H5.02541C2.24884 0 0 2.24884 0 5.02541V42.9746C0 43.1151 0.0106077 43.2557 0.0212154 43.3936L29.8475 13.5673H19.7463L26.103 7.1947L37.326 7.2C39.1478 7.17879 40.8265 8.80177 40.8 10.6926V10.6051C40.808 10.6634 40.8 21.3799 40.8027 21.4515L34.4354 27.8214L34.4274 18.187L21.2367 31.4042L39.1664 31.3246C40.0628 31.3246 40.7947 32.0539 40.7947 32.9529L40.8 47.9974H42.9719C45.7485 47.9974 47.9974 45.7485 47.9974 42.9719V5.02541C47.9974 2.24884 45.7485 0 42.9719 0Z" fill="#E30022"/>
<path d="M63.8882 13.5703H69.993L78.6754 37.6525H73.3158L71.5523 32.5635H62.3262L60.5627 37.6525H55.2031L63.8856 13.5703H63.8882ZM70.0964 28.2567L66.9432 18.9962L63.7874 28.2567H70.0964Z" fill="#05060F"/>
<path d="M86.8819 13.5703V32.4309C86.8819 33.3113 87.3566 33.8205 88.2397 33.8205H89.5286V37.6525H86.7467C83.7633 37.6525 81.7266 35.8545 81.7266 32.6324V13.5703H86.8819Z" fill="#05060F"/>
<path d="M98.0147 13.5703V32.4309C98.0147 33.3113 98.4894 33.8205 99.3725 33.8205H100.661V37.6525H97.8795C94.8961 37.6525 92.8594 35.8545 92.8594 32.6324V13.5703H98.0147Z" fill="#05060F"/>
<path d="M103.914 13.5703H109.205V17.3361H103.914V13.5703ZM109.138 19.6751V37.6525H103.983V19.6751H109.138Z" fill="#05060F"/>
<path d="M121.312 19.2656C126.772 19.2656 129.589 21.9441 129.589 27.0994V32.7295C129.589 33.9176 130.063 34.1536 130.708 34.1536H131.387V37.6462L130.472 37.6807C129.284 37.7151 125.791 38.0546 125.282 34.9332C124.433 36.7657 122.365 38.0546 119.108 38.0546C115.478 38.0546 112.664 36.0868 112.664 32.9337C112.664 29.5763 115.141 28.3193 119.482 27.4389L124.433 26.455C124.399 23.8429 123.383 22.623 121.312 22.623C119.583 22.623 118.496 23.5724 118.09 25.5056L112.935 25.2351C113.648 21.4031 116.597 19.2656 121.312 19.2656ZM120.702 34.7344C122.906 34.7344 124.502 33.0716 124.502 29.8495V29.6453L121.519 30.1889C119.45 30.5947 117.923 30.9023 117.923 32.7321C117.923 33.8513 118.872 34.7344 120.705 34.7344H120.702Z" fill="#05060F"/>
<path d="M138.987 19.674L139.122 22.5567C140.106 20.1832 142.108 19.2656 144.482 19.2656C148.417 19.2656 150.69 21.9123 150.69 26.0837V37.6515H145.569V27.781C145.569 24.9328 144.924 23.3363 142.821 23.3363C140.718 23.3363 139.53 24.9302 139.53 27.781V37.6515H134.375V19.674H138.987Z" fill="#05060F"/>
<path d="M163 23.2011C160.456 23.2011 159.03 25.2033 159.03 28.6614C159.03 32.1195 160.454 34.1218 163 34.1218C164.898 34.1218 166.291 32.9337 166.596 30.5947L171.886 30.7989C171.411 35.2753 167.781 38.0572 163 38.0572C157.436 38.0572 153.773 34.3604 153.773 28.6614C153.773 22.9624 157.436 19.2656 163 19.2656C167.646 19.2656 171.311 21.9441 171.785 26.3198L166.527 26.5584C166.222 24.3865 164.798 23.2011 163 23.2011Z" fill="#05060F"/>
<path d="M183.421 19.2656C188.373 19.2656 192.242 22.6919 192.207 29.0353V29.9847H179.555C179.69 32.6658 181.114 34.2597 183.421 34.2597C184.914 34.2597 186.238 33.411 186.813 32.0214L191.969 32.3954C190.884 35.8879 187.524 38.0599 183.421 38.0599C177.858 38.0599 174.195 34.3631 174.195 28.6641C174.195 22.9651 177.858 19.2683 183.421 19.2683V19.2656ZM187.017 26.8979C186.747 24.185 185.185 23.0658 183.421 23.0658C181.249 23.0658 179.86 24.5244 179.589 26.8979H187.017Z" fill="#05060F"/>
</svg>
