<svg fill="none" height="24" viewBox="0 0 24 24" width="24" xmlns="http://www.w3.org/2000/svg"><g fill="#02a5dd"><path d="m7.25594 9.86818c.00019.61062.00038 1.22132-.00062 1.83192-.00046.3021-.14726.4954-.40684.5455-.26377.0509-.52172-.1388-.5597-.4139-.00769-.0554-.01095-.1118-.01095-.1677-.00047-1.69375-.0007-3.38772-.00023-5.08144 0-.32564.13538-.51533.40451-.5727.2654-.0564.53197.1386.56599.41675.00722.05953.00769.12003.00769.18029.00035.63227.00031 1.26455.00026 1.89682z"/><path d="m5.91089 13.9615v1.1208c-.25119-.1408-.51217-.202-.78689-.2073-.46813-.0094-.86052.2321-1.02316.6329-.28288.6976.18245 1.4228.93019 1.4479.26796.0089.52428-.0448.76801-.1617.02763-.0134.0558-.0256.08404-.0378l.01173-.0051c.0017-.0008.0041.0001.00866.0018.00292.0011.00677.0025.01184.004l.00009.1898c.00018.2667.00036.5348-.00265.8027-.00023.0251-.03169.0661-.05522.0721-.62588.16-1.24313.1803-1.83708-.1343-.77547-.4107-1.09773-1.2119-1.02643-2.0099.10719-1.1972 1.09982-1.9478 2.24812-1.835.10415.0101.20854.0222.3113.0407.08247.0149.16424.0339.24814.0534.03582.0083.07249.0168.10931.025z"/><path d="m15.978 15.0823v-1.1331c-.0709-.0114-.1407-.0241-.2105-.0364-.1538-.0271-.306-.054-.459-.0694-1.1434-.1155-2.1388.631-2.2469 1.8333-.0679.7539.2036 1.5423.946 1.9731.6133.3557 1.2618.3381 1.9203.1709.0216-.0056.0517-.041.0517-.063.0026-.2736.0025-.5474.0024-.8281l-.0001-.1893-.0452.0206c-.0275.0124-.0509.023-.0739.0339-.24.1148-.4925.168-.7563.161-.7527-.0195-1.224-.7486-.9384-1.4503.1627-.3993.5555-.6401 1.0239-.6307.2745.0053.535.0679.786.2075z"/><path clip-rule="evenodd" d="m21.0145 15.9457c.0006-1.1705-.8613-2.0495-2.0103-2.0505-1.1406-.001-2.0165.888-2.0176 2.0476-.0012 1.1591.8777 2.0579 2.0116 2.0569 1.1362-.0007 2.0156-.8968 2.0163-2.054zm-1.0064-.0041c.0046.5813-.4442 1.0434-1.0132 1.0431-.5606-.0002-1.0038-.4601-1.0031-1.041.0007-.5792.4451-1.0376 1.0066-1.0376.5623-.0003 1.005.4536 1.0097 1.0355z" fill-rule="evenodd"/><path d="m11.8559 14.8543v-.8017c-.3467-.0798-.6897-.1427-1.0408-.1261-.2943.0138-.5761.0813-.82747.2505-.63403.4264-.68716 1.3931-.09904 1.8521.19041.1484.40501.2441.63731.3099.1615.0458.3255.1143.4625.2117.1678.1195.1452.3478-.0261.4649-.0568.0391-.1239.0673-.1903.0856-.2524.0691-.5083.0537-.7622.0113-.12102-.0201-.24098-.047-.36143-.074-.05258-.0118-.10534-.0237-.15823-.0349v.8918c.28707.0829 1.02996.1265 1.31396.0858.2999-.0432.5837-.1285.8323-.3143.6164-.4609.6343-1.4024.024-1.868-.1292-.0986-.281-.1671-.4314-.235-.0382-.0173-.0767-.0347-.1143-.0523-.0755-.0355-.1536-.065-.2317-.0945-.0747-.0282-.1495-.0564-.222-.0899-.1097-.0509-.1789-.1456-.1708-.2767.008-.129.0935-.2119.2037-.2345.1729-.0357.3518-.0666.5266-.0586.1468.0067.2928.0341.4404.0619.0646.0122.1296.0244.195.035z"/><path d="m16.7748 9.12133c0 .27336.0001.54624 0 .81961v.00142c-.0004.60114-.0007 1.20224.0014 1.80334.0011.3475.3001.5775.6209.4869.2244-.0634.3545-.2604.3545-.5431.0001-1.1397.0001-2.27945 0-3.41927v-1.71011-.0112c0-.02428.0001-.04869-.0021-.07292-.0299-.32756-.3034-.53509-.607-.46061-.2244.0552-.367.24754-.3675.50496-.0008.59905-.0006 1.1981-.0004 1.79715z"/><path d="m7.2605 13.9615h.96304v3.9339h-.96304z"/><path d="m20.3698 9.93527c-.0003-.12074-.0006-.24148-.0006-.36224 0-.10249.0011-.20499.0013-.30748.0004-.28677.0009-.57355-.0022-.86032-.0007-.08243-.011-.17041-.041-.24561-.0874-.21934-.3116-.33118-.5462-.28587-.217.04194-.3836.24079-.3852.49267-.0051.8024-.003 1.60503.0002 2.40768.0003.0699.0189.1444.0464.209.0902.2126.3148.3263.5387.282.2219-.0439.3843-.2362.3868-.4761.0032-.2844.0025-.5693.0018-.85373z"/><path d="m15.1246 9.93372c.0002.26948.0004.53888-.0004.80828-.0009.3129-.199.5286-.4833.5291-.2891.0007-.4921-.2174-.4926-.5344-.0011-.77851-.0011-1.55704 0-2.33558.0005-.3184.2025-.53581.4919-.53484.2904.0012.4835.21596.4842.54015.0005.25951.0003.51902.0002.77853z"/><path d="m9.8793 9.93116-.00018-.35935.0002-.25915c.00027-.30288.00053-.60576-.0002-.90864-.00093-.32082-.19852-.5375-.48793-.5375-.28963 0-.48839.21596-.48886.53701-.00116.77854-.0014 1.55707 0 2.33557.00047.317.20459.5339.49422.5322.28265-.0017.48141-.2191.48234-.5317.00081-.2695.00061-.539.00041-.80844z"/><path d="m3.65717 9.5605-.00015-.38521c-.00016-.25677-.00031-.51384.00015-.77054.0007-.30201.15589-.51195.39449-.53581.28382-.02844.48491.12919.54223.4353.02307.12317.03845.24971.03914.37481.00373.68621.00373 1.37245.00094 2.05865-.0014.3818-.3211.6264-.65431.5071-.19573-.0701-.32086-.2523-.32225-.4806-.0015-.2867-.00122-.5733-.00093-.85998z"/><path d="m11.5288 10.0887c.0002.0549.0004.1098.0004.1647 0 .0539-.0002.1078-.0004.1616-.0005.1185-.001.237.0009.3555.0047.2783.195.488.4502.5001.2782.0133.5024-.1666.5154-.4531.017-.3797.0172-.7615 0-1.14133-.013-.28489-.244-.47073-.5159-.4541-.2556.01567-.4453.22537-.4497.50231-.0019.12111-.0014.24305-.0009.36432z"/><path d="m1.97927 10.2551c0 .0542.00025.1084.00051.1625.00055.1182.0011.2364-.00098.3546-.00512.2875-.21553.5003-.48979.4991-.27449-.0012-.4835-.2135-.4863-.5028-.003496-.3487-.003729-.6975 0-1.04604.00326-.28683.2174-.50134.49003-.50038.27262.00096.48164.21596.48583.50424.00177.12167.00132.24322.00087.36478-.0002.0548-.00017.1093-.00017.164z"/><path d="m22.0191 10.0897c.0002.0531.0004.1062.0004.1594 0 .054-.0003.108-.0005.162-.0005.1188-.001.2376.0009.3562.0045.2873.2062.5002.4744.504.2778.0041.4945-.2003.5006-.4895.0074-.3534.006-.7072.0004-1.06054-.0046-.29068-.2181-.50111-.4926-.49942-.2719.00169-.4788.21838-.4828.50906-.0016.11965-.0012.23918-.0008.3588z"/></g></svg>