<svg xmlns="http://www.w3.org/2000/svg" width="385" height="80">
  <g fill="none" fill-rule="evenodd">
    <path fill="#4B39EF" d="M62.6346953 5c2.0419294 0 3.932105 1.10495747 4.8897046 2.90117979.9175035 1.72052381.8785645 3.74799731-.1017335 5.43086583l-.0334003.05659446L58.797229 27.761686c-.9716403 1.6252808-2.7256818 2.6396996-4.6004692 2.6613272l-.0611763.0003529-9.8114958-.0000742 4.0779977 9.3360579.0162576.027371.0250802.0440861c.9603602 1.7357989.93696 3.7995463-.0590037 5.5094907l-.033559.0568662-8.5920372 14.3730459c-.9716279 1.6252602-2.7256579 2.6396992-4.6003392 2.6613272l-.0611728.0003528-12.0424433-.0000727-8.657085 9.1308793-.016379.0169597c-.8146521.8281365-1.9153493 1.2901114-3.06294468 1.2901114-.28687737 0-.57394039-.029017-.85792487-.0869074-1.39987236-.2857868-2.56294247-1.2463524-3.12279336-2.5711718l-.01579288-.0378199-4.5558155-10.4582414-.02396517-.0400817-.02489178-.0431762c-.00413464-.0073406-.00833978-.0148895-.01273163-.0228504-.9603799-1.7356606-.93711859-3.7993897.05871905-5.5094078l.03355479-.0568687 8.33339023-13.9403453-6.14045717-14.0577293.11252166-.0573165-.00170287-.0084501c-.25981915-1.2930884-.05066555-2.6415918.61659034-3.8226746l.03685003-.0642554.03406455-.0577449L14.3801634 7.66159385C15.3519158 6.03641408 17.106033 5.02198075 18.9805888 5h43.6541065ZM17.5195195 62.3225554l-9.12912911-.0001167 2.68130607 6.2025373.00658969.016473c.04445079.1111187.11634572.1719176.22335357.193917.09545285.0196931.17267943-.00058.24572156-.0671425l.01276756-.0124274 5.95939066-6.3332407Zm26.0972898-21.3240639H16.0216465c-.0304749 0-.0609469.0010451-.0913666.0031225l-.008358.0006205 7.5663746 17.3076335h11.6076469c.4771331 0 .9367633-.2554374 1.1981154-.6657216l.0207527-.0336037 8.6044653-14.3818653c.2567119-.4290037.285096-.9267573.0816966-1.3746828-.2344947-.5165092-.7788305-.8555031-1.3841641-.8555031Zm-30.4637002 3.5539912L6.32399048 56.062932c-.27173927.4581365-.28748896.9946597-.04415041 1.4668274l.02581132.0480166.0137527.0235163.02756423.0450778.05461482.0812185.06096895.079324.05833111.0666318.01011922.0107963.03944414.0399574.03427615.032618c.21481759.1949988.48036924.3139697.77325981.3445374l.06579491.0056179.03809965.0019919.04827445.0008047H19.1171171l-5.964008-13.7573853Zm-1.79575174-14.1013199 2.99927214 6.8786926.058427-.0199194c.5179525-.1733278 1.0594942-.2672816 1.6069693-.2758366l.0821635-.000642 26.7486636-.000075-2.8699251-6.5821021-28.62557044-.0001175ZM62.5584793 9.01257071H34.8648649L42.433526 26.3239472h11.6034425c.4780071 0 .9380458-.2556087 1.1995326-.666128l.0207629-.0336228 8.6050319-14.38158804c.2565946-.42889584.2849618-.92627647.0817967-1.37381041-.2297367-.50591026-.7564873-.84170774-1.3470128-.85576798l-.0386005-.00045926Zm-31.9330555 0H19.086134c-.4745348 0-.9322019.25498701-1.1925532.66486892l-.0206736.03357113L9.29048824 24.092876c-.25622495.4292901-.2845422.9277916-.08136854 1.3762961.22884849.5054363.75276316.8402966 1.33974552.8543171l.03836849.000458H38.1741742L30.6254238 9.01257071Z"/>
    <path fill="#14181B" d="m108.367895 26.5584645.03325-8.8128402H84.1925926V57.803989h9.1138078V43.0968465h11.9286226l.03325-8.8128402H93.3064004v-7.7255418h15.0614946Zm5.159767 31.2455245h8.544194V16.0288372h-8.544194V57.803989Zm33.208437-28.6131177v15.6227623c0 4.0630627-2.164529 5.8943022-5.297401 5.8943022-2.734142 0-4.955633-1.6595608-4.955633-5.2075874V29.1908713h-8.544195v17.5684543c0 7.7255417 4.898672 11.8458307 10.651763 11.8458307 3.759446 0 6.607511-1.3734297 8.145466-3.4908004v2.6896331h8.544195V29.1908713h-8.544195Zm31.499598 8.2405779v-8.2405779h-5.867014v-8.0116729l-8.544194 2.5751806v5.4364923h-4.556904v8.2405779h4.556904v10.1290437c0 8.0116729 3.246794 11.3880208 14.411208 10.2434961v-7.782768c-3.759445.2289049-5.867014 0-5.867014-2.4607281V37.4314492h5.867014Zm22.100984 0v-8.2405779h-5.867014v-8.0116729l-8.544194 2.5751806v5.4364923h-4.556904v8.2405779h4.556904v10.1290437c0 8.0116729 3.246794 11.3880208 14.411208 10.2434961v-7.782768c-3.759445.2289049-5.867014 0-5.867014-2.4607281V37.4314492h5.867014Zm13.044138 9.4995551h20.221261c.227845-1.0872985.341768-2.2318232.341768-3.4335741 0-8.6411616-6.151821-15.1077262-14.46817-15.1077262-8.999885 0-15.151706 6.5810171-15.151706 15.1077262 0 8.526709 6.037898 15.1077261 15.77828 15.1077261 5.411323 0 9.62646-2.0029183 12.417563-5.8943023l-6.835356-3.9486102c-1.139226 1.2589772-3.132871 2.1745969-5.468284 2.1745969-3.132872 0-5.753092-1.0300722-6.835356-4.0058364Zm-.170884-6.4093384c.797458-2.918538 2.961987-4.5208726 6.208781-4.5208726 2.563259 0 5.126517 1.201751 6.037898 4.5208726h-12.246679Zm34.119818-6.2376596v-5.093135h-8.544195V57.803989h8.544195V44.8708598c0-5.6653973 5.012594-7.0960532 8.544195-6.5237908v-9.72846c-3.588562 0-7.404969 1.8312395-8.544195 5.6653973Zm36.991594-7.7255418.03325-8.8128402h-24.208552V57.803989h9.113808V43.0968465h11.928623l.03325-8.8128402h-11.961873v-7.7255418h15.061494Zm5.159767 31.2455245h8.544195V16.0288372h-8.544195V57.803989Zm28.48065.8011673c8.373311 0 15.094744-6.5810171 15.094744-15.1077261 0-8.5267091-6.721433-15.1077262-15.094744-15.1077262-8.373311 0-15.094744 6.5810171-15.094744 15.1077262 0 8.526709 6.721433 15.1077261 15.094744 15.1077261Zm0-8.3550304c-3.702485 0-6.55055-2.689633-6.55055-6.7526957 0-4.0630628 2.848065-6.7526958 6.55055-6.7526958 3.702484 0 6.550549 2.689633 6.550549 6.7526958 0 4.0630627-2.848065 6.7526957-6.550549 6.7526957Zm51.265169-21.0592546-4.101214 15.3366311-4.442981-15.3366311h-7.974582l-4.442981 15.3366311-4.101214-15.3366311h-9.113808l9.113808 28.6131177h7.974582l4.556904-15.2794048 4.556904 15.2794048h7.974582l9.113808-28.6131177h-9.113808Z"/>
  </g>
</svg>
